<svg xmlns="http://www.w3.org/2000/svg" viewBox="0 0 347 70.5" enable-background="new 0 0 347 70.5"><g fill="#fff"><path d="M39.5 44.6l-2.8 7.9h-.2c-.5-1.8-1.3-4.5-2.7-7.8l-15-37.7h-14.7v60h9.7v-37c0-2.3 0-5-.1-8.2-.1-1.6-.2-2.9-.3-3.8h.2c.5 2.3 1 4 1.4 5.1l18 43.8h6.8l17.9-44.2c.4-1 .8-3 1.2-4.7h.2c-.2 4.4-.4 8.4-.5 10.8v38.1h10.4v-60h-14.1l-15.4 37.7zM78.8 23.9h10.1v43h-10.1zM83.9 5.7c-1.7 0-3.1.6-4.3 1.7-1.2 1.1-1.8 2.5-1.8 4.2 0 1.6.6 3 1.8 4.1 1.2 1.1 2.6 1.6 4.3 1.6 1.7 0 3.2-.6 4.3-1.6 1.2-1.1 1.8-2.5 1.8-4.1 0-1.6-.6-3-1.8-4.2-1-1.2-2.5-1.7-4.3-1.7M124.7 23.5c-1.9-.4-3.8-.6-5.7-.6-4.6 0-8.8 1-12.3 3s-6.3 4.8-8.1 8.3c-1.9 3.6-2.8 7.7-2.8 12.4 0 4.1.9 7.8 2.7 11.1 1.8 3.3 4.3 5.9 7.6 7.7 3.2 1.8 6.9 2.7 11.1 2.7 4.8 0 8.9-1 12.2-2.9l.1-.1v-9.3l-.4.3c-1.5 1.1-3.2 2-4.9 2.6-1.8.6-3.4.9-4.8.9-4 0-7.2-1.2-9.5-3.7s-3.5-5.9-3.5-10.2c0-4.4 1.2-7.9 3.6-10.5 2.4-2.6 5.6-3.9 9.5-3.9 3.3 0 6.6 1.1 9.6 3.3l.4.3v-9.8l-.1-.1c-1.2-.6-2.8-1.1-4.7-1.5M158 23.2c-2.5 0-4.8.8-6.8 2.4-1.7 1.4-2.9 3.4-3.9 5.8h-.1v-7.4h-10.1v43h10.1v-22c0-3.7.8-6.8 2.5-9.1s3.9-3.5 6.5-3.5c.9 0 1.9.2 3 .4 1.1.3 1.9.6 2.4 1l.4.3v-10.2l-.2-.1c-.8-.4-2.1-.6-3.8-.6M185.5 22.9c-7.1 0-12.7 2.1-16.7 6.2s-6 9.8-6 16.9c0 6.7 2 12.1 5.9 16.1 3.9 3.9 9.2 5.9 15.8 5.9 6.9 0 12.4-2.1 16.4-6.3 4-4.2 6-9.8 6-16.7 0-6.8-1.9-12.3-5.7-16.2-3.7-3.9-9-5.9-15.7-5.9m8 33.1c-1.9 2.4-4.8 3.6-8.5 3.6s-6.6-1.2-8.7-3.7c-2.1-2.4-3.1-5.9-3.1-10.3 0-4.6 1.1-8.1 3.1-10.6 2.1-2.5 5-3.7 8.6-3.7 3.6 0 6.4 1.2 8.4 3.6 2 2.4 3.1 5.9 3.1 10.5s-1 8.2-2.9 10.6M229.3 41.7c-3.2-1.3-5.2-2.3-6.1-3.2-.8-.8-1.2-1.9-1.2-3.3 0-1.2.5-2.3 1.6-3.1 1.1-.8 2.5-1.2 4.4-1.2 1.7 0 3.5.3 5.2.8 1.7.5 3.3 1.2 4.5 2.1l.4.3v-9.4l-.2-.1c-1.2-.5-2.7-.9-4.6-1.3-1.9-.3-3.6-.5-5-.5-4.8 0-8.8 1.2-11.9 3.7-3.1 2.4-4.6 5.7-4.6 9.5 0 2 .3 3.8 1 5.3s1.7 2.9 3.1 4c1.4 1.1 3.4 2.3 6.2 3.5 2.3 1 4.1 1.8 5.2 2.4 1.1.6 1.8 1.3 2.3 1.9.4.6.6 1.4.6 2.4 0 2.9-2.2 4.3-6.6 4.3-1.7 0-3.5-.3-5.6-1-2.1-.7-4-1.7-5.7-2.9l-.4-.3v9.9l.2.1c1.5.7 3.3 1.2 5.4 1.7 2.2.4 4.1.7 5.8.7 5.2 0 9.5-1.2 12.5-3.7 3.1-2.5 4.7-5.7 4.7-9.8 0-2.9-.8-5.4-2.5-7.4-1.8-2-4.7-3.8-8.7-5.4M267.6 22.9c-7.1 0-12.7 2.1-16.7 6.2s-6 9.8-6 16.9c0 6.7 2 12.1 5.9 16.1 3.9 3.9 9.2 5.9 15.8 5.9 6.9 0 12.4-2.1 16.4-6.3 4-4.2 6-9.8 6-16.7 0-6.8-1.9-12.3-5.7-16.2-3.8-3.9-9.1-5.9-15.7-5.9m8 33.1c-1.9 2.4-4.8 3.6-8.5 3.6s-6.6-1.2-8.7-3.7c-2.1-2.4-3.1-5.9-3.1-10.3 0-4.6 1.1-8.1 3.1-10.6 2.1-2.5 5-3.7 8.6-3.7 3.5 0 6.4 1.2 8.4 3.6 2 2.4 3.1 5.9 3.1 10.5s-1 8.2-2.9 10.6"/><path d="M342.9 32.2v-8.2h-10.2v-12.9l-.3.1-9.6 2.9-.2.1v9.7h-15.2v-5.4c0-2.5.6-4.4 1.7-5.7 1.1-1.3 2.7-1.9 4.7-1.9 1.4 0 2.9.3 4.5 1l.4.2v-8.7l-.2-.1c-1.4-.5-3.3-.8-5.7-.8-3 0-5.7.7-8.1 1.9-2.4 1.3-4.2 3.1-5.5 5.5-1.3 2.3-2 5-2 8v6h-7.2v8.2h7.1v34.8h10.2v-34.7h15.2v22.1c0 9.1 4.3 13.7 12.8 13.7 1.4 0 2.9-.2 4.3-.5 1.5-.3 2.6-.7 3.2-1l.1-.1v-8.3l-.4.3c-.6.4-1.2.7-2.1.9-.8.2-1.5.3-2 .3-2 0-3.4-.5-4.4-1.6-.9-1.1-1.4-2.9-1.4-5.5v-20.3h10.3z"/></g></svg>